<?xml version="1.0" encoding="utf-8"?>
<svg viewBox="0 0 50 50" xmlns="http://www.w3.org/2000/svg">
  <path d="M 11.32 -5.318 L 13.74 -5.004 Q 13.344 -2.502 11.71 -1.087 Q 10.076 0.328 7.697 0.328 Q 4.717 0.328 2.905 -1.62 Q 1.094 -3.568 1.094 -7.205 Q 1.094 -9.557 1.873 -11.32 Q 2.652 -13.084 4.245 -13.966 Q 5.838 -14.848 7.711 -14.848 Q 10.076 -14.848 11.58 -13.651 Q 13.084 -12.455 13.508 -10.254 L 11.115 -9.885 Q 10.773 -11.348 9.905 -12.086 Q 9.037 -12.824 7.807 -12.824 Q 5.947 -12.824 4.785 -11.491 Q 3.623 -10.158 3.623 -7.273 Q 3.623 -4.348 4.744 -3.021 Q 5.865 -1.695 7.67 -1.695 Q 9.119 -1.695 10.09 -2.584 Q 11.061 -3.473 11.32 -5.318 Z" transform="matrix(2.9233450889587402, 0.037202998995780945, -0.038923002779483795, 3.2559969425201416, 9.533470906454909, 48.421442918167884)"/>
  <path d="M 2.051 0 L 2.051 -20.043 L 9.57 -20.043 Q 11.867 -20.043 13.255 -19.435 Q 14.643 -18.826 15.429 -17.562 Q 16.215 -16.297 16.215 -14.916 Q 16.215 -13.631 15.518 -12.496 Q 14.82 -11.361 13.412 -10.664 Q 15.23 -10.131 16.208 -8.846 Q 17.186 -7.561 17.186 -5.811 Q 17.186 -4.402 16.591 -3.192 Q 15.996 -1.982 15.121 -1.326 Q 14.246 -0.67 12.927 -0.335 Q 11.607 0 9.693 0 Z M 4.703 -11.621 L 9.037 -11.621 Q 10.801 -11.621 11.566 -11.854 Q 12.578 -12.154 13.091 -12.852 Q 13.604 -13.549 13.604 -14.602 Q 13.604 -15.6 13.125 -16.358 Q 12.646 -17.117 11.758 -17.397 Q 10.869 -17.678 8.709 -17.678 L 4.703 -17.678 Z M 4.703 -2.365 L 9.693 -2.365 Q 10.979 -2.365 11.498 -2.461 Q 12.414 -2.625 13.029 -3.008 Q 13.645 -3.391 14.041 -4.122 Q 14.438 -4.854 14.438 -5.811 Q 14.438 -6.932 13.863 -7.759 Q 13.289 -8.586 12.271 -8.921 Q 11.252 -9.256 9.338 -9.256 L 4.703 -9.256 Z" transform="matrix(2.460397005081, 0.003570000175, -0.003844000166, 2.441205978394, -4.453887811421, 0.363444363095)" style="transform-origin: -0.062444px -34.0266px;"/>
</svg>