<svg xmlns="http://www.w3.org/2000/svg" version="1.1" viewBox="0 0 100 100">
 <path fill="currentColor" d="m75 25h-6v-3c0-1.6562-1.3438-3-3-3s-3 1.3438-3 3v3h-26v-3c0-1.6562-1.3438-3-3-3s-3 1.3438-3 3v3h-6c-5.5234 0-10 4.4766-10 10v36c0 2.6523 1.0547 5.1953 2.9297 7.0703s4.418 2.9297 7.0703 2.9297h50c2.6523 0 5.1953-1.0547 7.0703-2.9297s2.9297-4.418 2.9297-7.0703v-36c0-2.6523-1.0547-5.1953-2.9297-7.0703s-4.418-2.9297-7.0703-2.9297zm-54 10c0-2.2109 1.7891-4 4-4h50c1.0625 0 2.0781 0.42188 2.8281 1.1719s1.1719 1.7656 1.1719 2.8281v5h-58zm54 40h-50c-2.2109 0-4-1.7891-4-4v-25h58v25c0 1.0625-0.42188 2.0781-1.1719 2.8281s-1.7656 1.1719-2.8281 1.1719z" fill-rule="evenodd"/>
</svg>