<svg xmlns="http://www.w3.org/2000/svg" xmlns:xlink="http://www.w3.org/1999/xlink" version="1.1" x="0px" y="0px" viewBox="0 0 100 100" enable-background="new 0 0 100 100" xml:space="preserve"><path fill="currentColor" d="M81.283,17.032H65.846v-7.22C65.846,7.166,63.68,5,61.032,5H38.968c-2.647,0-4.813,2.166-4.813,4.813v7.22H18.717  c-2.647,0-4.813,2.166-4.813,4.813v2.407c0,2.646,2.166,4.813,4.813,4.813h62.566c2.646,0,4.813-2.166,4.813-4.813v-2.407  C86.096,19.198,83.932,17.032,81.283,17.032z M60.068,17.032H39.93v-6.257h20.138V17.032z"/><path d="M77.914,32.433H22.086c-0.532,0.001-0.94,0.431-0.911,0.962l2.821,52.378C24.268,90.85,28.651,95,33.732,95h32.536  c5.082,0,9.465-4.15,9.736-9.227l2.821-52.379C78.854,32.864,78.445,32.433,77.914,32.433z M37,85.854  c-0.027,0.002-0.053,0.002-0.079,0.002c-1.559,0-2.843-1.242-2.885-2.811l-1.037-38.501c-0.043-1.595,1.214-2.921,2.809-2.965  c1.607-0.018,2.921,1.215,2.964,2.81l1.037,38.5C39.852,84.482,38.594,85.811,37,85.854z M52.889,82.968  c0,1.595-1.293,2.888-2.889,2.888c-1.594,0-2.888-1.293-2.888-2.888V44.466c0-1.595,1.293-2.888,2.888-2.888  c1.596,0,2.889,1.293,2.889,2.888V82.968z M65.964,83.045c-0.042,1.566-1.325,2.811-2.885,2.811c-0.027,0-0.054,0-0.079-0.002  c-1.596-0.043-2.854-1.369-2.811-2.965l1.037-38.5c0.043-1.596,1.383-2.843,2.965-2.81c1.595,0.044,2.854,1.37,2.81,2.965  L65.964,83.045z"/></svg>