<svg xmlns="http://www.w3.org/2000/svg" xmlns:xlink="http://www.w3.org/1999/xlink" viewBox="0 0 24 24" version="1.1" x="0px" y="0px"><desc>Created with Sketch.</desc><g stroke="none" stroke-width="1" fill="currentColor" fill-rule="evenodd"><path d="M9.14387294,3.59665616 C9.70750895,3.59665616 10.1644262,4.05440381 10.1644262,4.61906415 C10.1644262,5.18372449 9.70750895,5.64147214 9.14387294,5.64147214 L4.83489289,5.64147214 C4.39716203,5.64147214 4.04110655,5.9981747 4.04110655,6.43670108 L4.04110655,19.1599551 C4.04110655,19.5984815 4.39716203,19.955184 4.83489289,19.955184 L17.5350661,19.955184 C17.972797,19.955184 18.3288524,19.5984815 18.3288524,19.1599551 L18.3288524,14.8431441 C18.3288524,14.2784837 18.7857697,13.8207361 19.3494057,13.8207361 C19.9130417,13.8207361 20.369959,14.2784837 20.369959,14.8431441 L20.369959,19.1599551 C20.369959,20.7278021 19.100069,22 17.5350661,22 L4.83489289,22 C3.26989001,22 2,20.7278021 2,19.1599551 L2,6.43670108 C2,4.86885402 3.26989001,3.59665616 4.83489289,3.59665616 L9.14387294,3.59665616 Z M13.8495479,6.5505148 C13.45099,6.1512467 13.4509786,5.50389377 13.8495224,5.10461156 C14.2480662,4.70532934 14.8942448,4.7053179 15.2928027,5.104586 L18.1794376,7.99636476 C18.5779955,8.39563286 18.5780069,9.04298579 18.1794631,9.442268 C17.7809193,9.84155022 17.1347407,9.84156166 16.7361828,9.44229356 L13.8495479,6.5505148 Z M21.4721635,7.58947302 L13.3566217,15.7197636 C13.1800761,15.8966301 12.9449372,16.0025255 12.6957063,16.0174085 L8.85883424,16.2465301 C8.24821818,16.2829935 7.74296719,15.7768243 7.77936443,15.1650985 L8.00807042,11.3212534 C8.02292643,11.0715696 8.12862968,10.8360034 8.30517534,10.6591369 L16.4206184,2.52894516 C17.2449282,1.70291153 18.5836242,1.89478369 19.442283,2.75500297 L21.2464171,4.56241582 C22.1050216,5.42258071 22.2964787,6.76365965 21.4721635,7.58947302 Z M20.0288832,6.14356978 C19.9510139,6.22158059 19.9401663,6.14559759 19.8031368,6.00831906 L17.9990027,4.20090622 C17.8619453,4.0635997 17.7861706,4.05273909 17.8639973,3.97474957 L10.0225002,11.8304976 L9.88527746,14.1367899 L12.187386,13.9993178 L20.0288832,6.14356978 Z" fill="#000000" fill-rule="nonzero"/></g></svg>