<?xml version="1.0" encoding="utf-8"?>
<svg viewBox="27.775 35.182 285.825 369.149" xmlns="http://www.w3.org/2000/svg">
  <g transform="matrix(0.10000000149011612, 0, 0, -0.10000000149011612, 27.638350857632233, 404.25621706156863)" fill="currentColor" stroke="none">
    <path d="M0 1845 l0 -1845 1430 0 1430 0 0 1845 0 1845 -1430 0 -1430 0 0 -1845z m1319 1630 c58 -32 110 -89 138 -151 16 -35 18 -86 21 -542 2 -427 1 -512 -12 -556 -28 -97 -93 -164 -188 -197 -36 -13 -45 -18 -28 -19 38 0 123 -54 159 -99 69 -87 66 -60 66 -646 0 -486 -1 -533 -18 -568 -26 -55 -84 -115 -141 -145 l-51 -27 -517 -3 -518 -3 0 1448 0 1448 -35 44 c-19 24 -35 46 -35 48 0 2 249 3 553 1 l552 -3 54 -30z m1361 -190 l0 -225 -381 -2 -381 -3 54 -38 55 -37 -5 -743 c-3 -408 -1 -858 3 -999 l7 -258 324 0 324 0 0 -225 0 -225 -412 0 -413 0 -51 24 c-95 44 -148 118 -165 229 -6 38 -8 545 -7 1287 l3 1225 28 57 c16 32 47 73 69 92 74 64 79 64 536 65 l412 1 0 -225z m0 -3064 l0 -71 -90 0 -90 0 0 64 c0 74 -6 70 113 74 l67 3 0 -70z m-2340 -6 l0 -65 -90 0 -90 0 0 65 0 65 90 0 90 0 0 -65z m230 0 l0 -65 -90 0 -90 0 0 65 0 65 90 0 90 0 0 -65z m240 0 l0 -65 -90 0 -90 0 0 65 0 65 90 0 90 0 0 -65z m230 0 l0 -65 -90 0 -90 0 0 65 0 65 90 0 90 0 0 -65z m240 0 l0 -65 -90 0 -90 0 0 65 0 65 90 0 90 0 0 -65z m230 0 l0 -65 -90 0 -90 0 0 65 0 65 90 0 90 0 0 -65z m240 0 l0 -66 -92 3 -93 3 -3 63 -3 62 96 0 95 0 0 -65z m230 0 l0 -65 -90 0 -90 0 0 65 0 65 90 0 90 0 0 -65z m238 3 l-3 -63 -92 -3 -93 -3 0 66 0 65 95 0 96 0 -3 -62z m232 -3 l0 -65 -90 0 -90 0 0 65 0 65 90 0 90 0 0 -65z"/>
    <path d="M572 3007 l53 -43 3 -362 2 -362 225 0 225 0 0 405 0 405 -280 0 -281 0 53 -43z"/>
    <path d="M520 1785 c0 -2 25 -23 55 -45 l55 -41 0 -364 0 -365 225 0 225 0 0 410 0 410 -280 0 c-154 0 -280 -2 -280 -5z"/>
  </g>
</svg>